<?xml version="1.0" encoding="utf-8"?>
<!-- Generator: Adobe Illustrator 14.0.0, SVG Export Plug-In . SVG Version: 6.00 Build 43363)  -->
<!DOCTYPE svg PUBLIC "-//W3C//DTD SVG 1.1//EN" "http://www.w3.org/Graphics/SVG/1.1/DTD/svg11.dtd">
<svg version="1.1" id="Layer_1" xmlns="http://www.w3.org/2000/svg" xmlns:xlink="http://www.w3.org/1999/xlink" x="0px" y="0px"
	 width="161.25px" height="49px" viewBox="0 0 161.25 49" enable-background="new 0 0 161.25 49" xml:space="preserve">
<rect x="2" fill="#1BB89D" stroke="#0D8871" stroke-width="1.5" width="47.601" height="47.601"/>
<rect x="8.581" y="6.58" fill="#0D8871" width="34.439" height="34.44"/>
<g>
	<path fill="#FFFFFF" d="M32.056,15.039c1.228,0.895,1.841,2.113,1.841,3.656c0,1.104-0.31,2.051-0.928,2.841
		c-0.619,0.79-1.471,1.318-2.556,1.585c1.332,0.247,2.375,0.818,3.127,1.714c0.752,0.895,1.127,2.009,1.127,3.342
		c0,1.713-0.662,3.06-1.985,4.041c-1.323,0.98-3.127,1.471-5.412,1.471h-9.139V13.696h8.882
		C29.146,13.696,30.827,14.144,32.056,15.039z M29.142,21.207c0.561-0.438,0.843-1.046,0.843-1.827c0-0.761-0.282-1.352-0.843-1.771
		c-0.562-0.418-1.338-0.618-2.327-0.599h-4.855v4.854h4.855C27.804,21.864,28.581,21.646,29.142,21.207z M29.671,29.689
		c0.685-0.476,1.027-1.143,1.027-1.998c0-0.819-0.342-1.461-1.027-1.929c-0.686-0.466-1.638-0.69-2.856-0.671h-4.855v5.284h4.855
		C28.033,30.395,28.985,30.166,29.671,29.689z"/>
</g>
<g>
	<path fill="#0D8871" d="M72.25,15.824c1.234,0.899,1.851,2.124,1.851,3.673c0,1.109-0.311,2.062-0.933,2.854
		c-0.622,0.794-1.478,1.324-2.568,1.592c1.339,0.249,2.386,0.823,3.142,1.722c0.755,0.899,1.133,2.019,1.133,3.356
		c0,1.723-0.665,3.075-1.994,4.061c-1.33,0.985-3.142,1.478-5.437,1.478h-9.181V14.476h8.923
		C69.328,14.476,71.016,14.925,72.25,15.824z M69.323,22.021c0.564-0.439,0.846-1.052,0.846-1.836c0-0.765-0.282-1.358-0.846-1.779
		c-0.564-0.42-1.344-0.621-2.338-0.603h-4.878v4.878h4.878C67.979,22.682,68.759,22.462,69.323,22.021z M69.854,30.543
		c0.689-0.478,1.033-1.147,1.033-2.009c0-0.821-0.344-1.469-1.033-1.937c-0.688-0.469-1.645-0.692-2.869-0.674h-4.878v5.308h4.878
		C68.208,31.251,69.165,31.021,69.854,30.543z"/>
	<path fill="#0D8871" d="M89.378,20.071c1.214,0.65,2.161,1.563,2.841,2.74c0.679,1.177,1.018,2.529,1.018,4.059
		c0,1.551-0.339,2.918-1.018,4.104c-0.68,1.188-1.627,2.104-2.841,2.754c-1.215,0.652-2.615,0.976-4.203,0.976
		c-1.606,0-3.022-0.323-4.247-0.976c-1.224-0.649-2.176-1.566-2.854-2.754c-0.679-1.186-1.018-2.553-1.018-4.104
		c0-1.529,0.339-2.882,1.018-4.059s1.631-2.09,2.854-2.74c1.224-0.65,2.64-0.976,4.247-0.976
		C86.763,19.095,88.163,19.42,89.378,20.071z M82.019,23.571c-0.803,0.86-1.205,1.979-1.205,3.356c0,1.377,0.402,2.497,1.205,3.357
		c0.804,0.859,1.855,1.29,3.156,1.29c1.263,0,2.295-0.431,3.099-1.29c0.804-0.86,1.205-1.98,1.205-3.357
		c0-1.378-0.401-2.496-1.205-3.356c-0.804-0.861-1.836-1.292-3.099-1.292C83.874,22.279,82.822,22.71,82.019,23.571z"/>
	<path fill="#0D8871" d="M93.982,19.21h4.304l3.185,4.992l3.271-4.992h4.104l-4.878,7.488l5.222,7.861h-4.303l-3.415-5.364
		L97.77,34.56H93.61l5.364-7.861L93.982,19.21z"/>
	<path fill="#0D8871" d="M112.058,14.476h3.845v16.612h8.664v3.472h-12.509V14.476z"/>
	<path fill="#0D8871" d="M136.501,34.56v-1.864c-0.535,0.67-1.223,1.177-2.065,1.521c-0.841,0.344-1.807,0.516-2.896,0.516
		c-1.072,0-2.015-0.205-2.827-0.616c-0.813-0.412-1.439-0.979-1.88-1.708c-0.439-0.727-0.66-1.539-0.66-2.438
		c0-1.436,0.508-2.559,1.521-3.372c1.014-0.813,2.448-1.229,4.305-1.248h4.475v-0.401c0-0.898-0.297-1.597-0.889-2.095
		c-0.594-0.497-1.454-0.746-2.583-0.746c-1.454,0-2.975,0.479-4.562,1.435l-1.348-2.582c1.205-0.669,2.299-1.152,3.284-1.449
		c0.985-0.296,2.138-0.444,3.458-0.444c1.989,0,3.533,0.479,4.634,1.435c1.099,0.957,1.658,2.295,1.678,4.017l0.028,10.042H136.501z
		 M135.182,31.103c0.766-0.507,1.195-1.133,1.291-1.879v-1.379H132.6c-0.994,0-1.726,0.149-2.194,0.446
		c-0.47,0.295-0.702,0.779-0.702,1.449c0,0.649,0.243,1.167,0.73,1.549c0.488,0.382,1.151,0.573,1.994,0.573
		C133.498,31.862,134.417,31.609,135.182,31.103z"/>
	<path fill="#0D8871" d="M157.201,20.085c1.101,0.66,1.951,1.583,2.555,2.769c0.602,1.187,0.903,2.554,0.903,4.103
		c0,1.531-0.297,2.879-0.889,4.045c-0.594,1.168-1.436,2.076-2.525,2.726c-1.091,0.652-2.353,0.976-3.788,0.976
		c-1.146,0-2.16-0.225-3.041-0.674c-0.879-0.449-1.606-1.104-2.181-1.965v2.496h-3.729V13.271h3.729v8.464
		c0.556-0.86,1.269-1.515,2.139-1.965s1.878-0.674,3.027-0.674C154.835,19.095,156.102,19.425,157.201,20.085z M155.668,30.184
		c0.803-0.87,1.205-1.984,1.205-3.342s-0.402-2.468-1.205-3.329c-0.805-0.859-1.836-1.29-3.1-1.29c-1.281,0-2.323,0.431-3.128,1.29
		c-0.803,0.861-1.205,1.972-1.205,3.329c0,1.378,0.402,2.496,1.205,3.356c0.805,0.861,1.847,1.292,3.128,1.292
		C153.832,31.49,154.863,31.055,155.668,30.184z"/>
</g>
</svg>
